<svg width="257" height="59" viewBox="0 0 257 59" fill="none" xmlns="http://www.w3.org/2000/svg">
<rect width="257" height="59" rx="15" fill="#191C22"/>
<path d="M26.5 16.3295L27.3466 11.2727H29.4034L27.9489 20H25.9545L26.2159 18.4489H26.125C25.8523 18.9375 25.4621 19.3371 24.9545 19.6477C24.4508 19.9583 23.8712 20.1136 23.2159 20.1136C22.6439 20.1136 22.161 19.9867 21.767 19.733C21.3731 19.4754 21.0928 19.1023 20.9261 18.6136C20.7633 18.1212 20.7386 17.5265 20.8523 16.8295L21.7841 11.2727H23.8409L22.9659 16.5114C22.8788 17.0644 22.9583 17.5038 23.2045 17.8295C23.4545 18.1553 23.8258 18.3182 24.3182 18.3182C24.6212 18.3182 24.9261 18.2443 25.233 18.0966C25.5436 17.9489 25.8144 17.7292 26.0455 17.4375C26.2765 17.142 26.428 16.7727 26.5 16.3295ZM34.5326 8.36364L32.6007 20H30.5439L32.4757 8.36364H34.5326ZM41.0083 11.2727L40.7413 12.8636H35.7299L35.9913 11.2727H41.0083ZM37.5708 9.18182H39.6276L38.264 17.375C38.2223 17.6515 38.2299 17.8636 38.2867 18.0114C38.3473 18.1553 38.4439 18.2538 38.5765 18.3068C38.7128 18.3598 38.8663 18.3864 39.0367 18.3864C39.1617 18.3864 39.2791 18.3769 39.389 18.358C39.4988 18.3352 39.5859 18.3182 39.6503 18.3068L39.7413 19.9148C39.6163 19.9527 39.4477 19.9943 39.2356 20.0398C39.0272 20.0852 38.7772 20.1117 38.4856 20.1193C37.9628 20.1307 37.5083 20.0511 37.1219 19.8807C36.7394 19.7064 36.4591 19.4394 36.281 19.0795C36.1068 18.7159 36.067 18.2614 36.1617 17.7159L37.5708 9.18182ZM41.7539 20L43.2085 11.2727H45.2653L43.8107 20H41.7539ZM44.538 10.0227C44.2085 10.0227 43.9357 9.91288 43.7198 9.69318C43.5039 9.47348 43.4092 9.21023 43.4357 8.90341C43.4623 8.59659 43.6005 8.33333 43.8505 8.11364C44.1043 7.89394 44.3941 7.78409 44.7198 7.78409C45.0494 7.78409 45.3202 7.89394 45.5323 8.11364C45.7482 8.33333 45.8429 8.59659 45.8164 8.90341C45.7937 9.21023 45.6554 9.47348 45.4016 9.69318C45.1516 9.91288 44.8638 10.0227 44.538 10.0227ZM46.4115 20L47.866 11.2727H49.8376L49.5876 12.7557H49.6956C49.9607 12.2557 50.3263 11.8655 50.7922 11.5852C51.2581 11.3011 51.7827 11.1591 52.366 11.1591C52.9531 11.1591 53.4266 11.303 53.7865 11.5909C54.1501 11.875 54.3736 12.2633 54.4569 12.7557H54.5478C54.8206 12.267 55.2107 11.8788 55.7183 11.5909C56.2297 11.303 56.8035 11.1591 57.4399 11.1591C58.2353 11.1591 58.8452 11.4129 59.2694 11.9205C59.6937 12.428 59.8244 13.1686 59.6615 14.142L58.6842 20H56.6274L57.5592 14.4602C57.6425 13.9186 57.5592 13.5227 57.3092 13.2727C57.063 13.0189 56.7316 12.892 56.3149 12.892C55.8187 12.892 55.4058 13.0455 55.0763 13.3523C54.7505 13.6591 54.5497 14.0606 54.474 14.5568L53.5592 20H51.5422L52.4853 14.375C52.5535 13.9242 52.474 13.5644 52.2467 13.2955C52.0232 13.0265 51.6937 12.892 51.2581 12.892C50.9626 12.892 50.6804 12.9678 50.4115 13.1193C50.1425 13.2708 49.9134 13.483 49.724 13.7557C49.5384 14.0246 49.4172 14.3371 49.3603 14.6932L48.474 20H46.4115ZM63.7338 20.1761C63.1808 20.1761 62.6997 20.0777 62.2906 19.8807C61.8815 19.6799 61.5804 19.3845 61.3872 18.9943C61.1978 18.6042 61.1505 18.1231 61.2452 17.5511C61.3285 17.0587 61.4876 16.6515 61.7224 16.3295C61.9611 16.0076 62.2527 15.75 62.5974 15.5568C62.9459 15.3598 63.3247 15.2121 63.7338 15.1136C64.1467 15.0152 64.5671 14.9432 64.9952 14.8977C65.5179 14.8447 65.9402 14.7955 66.2622 14.75C66.588 14.7045 66.8323 14.6364 66.9952 14.5455C67.1581 14.4508 67.2565 14.3068 67.2906 14.1136V14.0795C67.3588 13.6515 67.2906 13.3201 67.0861 13.0852C66.8815 12.8504 66.5406 12.733 66.0634 12.733C65.5634 12.733 65.1429 12.8428 64.802 13.0625C64.4611 13.2822 64.213 13.5417 64.0577 13.8409L62.194 13.5682C62.4289 13.0379 62.7509 12.5947 63.1599 12.2386C63.569 11.8788 64.0406 11.6098 64.5747 11.4318C65.1126 11.25 65.6865 11.1591 66.2963 11.1591C66.713 11.1591 67.1202 11.2083 67.5179 11.3068C67.9194 11.4053 68.2736 11.5682 68.5804 11.7955C68.891 12.0189 69.1183 12.3239 69.2622 12.7102C69.4099 13.0966 69.4346 13.5795 69.3361 14.1591L68.3645 20H66.3872L66.5918 18.8011H66.5236C66.3607 19.0436 66.1486 19.2708 65.8872 19.483C65.6259 19.6913 65.3152 19.8598 64.9554 19.9886C64.5956 20.1136 64.1884 20.1761 63.7338 20.1761ZM64.5122 18.6648C64.9251 18.6648 65.2963 18.5833 65.6259 18.4205C65.9554 18.2538 66.2262 18.0341 66.4384 17.7614C66.6505 17.4886 66.7831 17.1913 66.8361 16.8693L67.0065 15.8409C66.9308 15.8939 66.8134 15.9432 66.6543 15.9886C66.4952 16.0341 66.3171 16.0739 66.1202 16.108C65.927 16.142 65.7357 16.1723 65.5463 16.1989C65.3569 16.2254 65.194 16.2481 65.0577 16.267C64.7433 16.3087 64.4554 16.3769 64.194 16.4716C63.9365 16.5663 63.7224 16.6989 63.552 16.8693C63.3853 17.036 63.2812 17.2519 63.2395 17.517C63.1789 17.892 63.2679 18.178 63.5065 18.375C63.7452 18.5682 64.0804 18.6648 64.5122 18.6648ZM76.7252 11.2727L76.4581 12.8636H71.4468L71.7081 11.2727H76.7252ZM73.2877 9.18182H75.3445L73.9809 17.375C73.9392 17.6515 73.9468 17.8636 74.0036 18.0114C74.0642 18.1553 74.1608 18.2538 74.2934 18.3068C74.4297 18.3598 74.5831 18.3864 74.7536 18.3864C74.8786 18.3864 74.996 18.3769 75.1059 18.358C75.2157 18.3352 75.3028 18.3182 75.3672 18.3068L75.4581 19.9148C75.3331 19.9527 75.1646 19.9943 74.9524 20.0398C74.7441 20.0852 74.4941 20.1117 74.2024 20.1193C73.6797 20.1307 73.2252 20.0511 72.8388 19.8807C72.4562 19.7064 72.1759 19.4394 71.9979 19.0795C71.8237 18.7159 71.7839 18.2614 71.8786 17.7159L73.2877 9.18182ZM81.218 20.1705C80.343 20.1705 79.6195 19.9886 79.0475 19.625C78.4755 19.2576 78.074 18.7386 77.843 18.0682C77.6157 17.3939 77.5778 16.6004 77.7293 15.6875C77.877 14.7898 78.1782 14.0019 78.6327 13.3239C79.0873 12.642 79.6555 12.1117 80.3373 11.733C81.0229 11.3504 81.7805 11.1591 82.61 11.1591C83.1479 11.1591 83.6422 11.2462 84.093 11.4205C84.5437 11.5909 84.9244 11.8561 85.235 12.2159C85.5456 12.5758 85.7596 13.0341 85.877 13.5909C85.9945 14.1439 85.9888 14.803 85.86 15.5682L85.7634 16.1989H78.6043L78.8259 14.8125H84.0077C84.0759 14.4186 84.0532 14.0682 83.9395 13.7614C83.8259 13.4508 83.6365 13.2064 83.3714 13.0284C83.1062 12.8504 82.7748 12.7614 82.377 12.7614C81.9717 12.7614 81.593 12.8655 81.2407 13.0739C80.8922 13.2784 80.5986 13.5436 80.36 13.8693C80.1214 14.1951 79.9698 14.5379 79.9055 14.8977L79.6725 16.2273C79.5892 16.7727 79.6081 17.2178 79.7293 17.5625C79.8505 17.9072 80.0627 18.161 80.3657 18.3239C80.6687 18.4867 81.0513 18.5682 81.5134 18.5682C81.8164 18.5682 82.0967 18.5265 82.3543 18.4432C82.6119 18.3598 82.8411 18.2348 83.0418 18.0682C83.2464 17.8977 83.4168 17.6894 83.5532 17.4432L85.4339 17.6591C85.2255 18.1667 84.9206 18.6098 84.5191 18.9886C84.1176 19.3636 83.6365 19.6553 83.0759 19.8636C82.5191 20.0682 81.8998 20.1705 81.218 20.1705Z" fill="#FF73B9"/>
<path d="M39.7812 29L33.7344 47H26.2344L20.1875 29H26.9844L29.8906 40.9062H30.0781L32.9844 29H39.7812ZM40.5373 47V23H47.053V32.375H55.678V23H62.1936V47H55.678V37.625H47.053V47H40.5373ZM73.063 47.3281C71.1098 47.3281 69.438 46.9414 68.0473 46.168C66.6567 45.3867 65.5903 44.3008 64.8481 42.9102C64.1059 41.5117 63.7348 39.8906 63.7348 38.0469C63.7348 36.2031 64.1059 34.5859 64.8481 33.1953C65.5903 31.7969 66.6567 30.7109 68.0473 29.9375C69.438 29.1562 71.1098 28.7656 73.063 28.7656C75.0161 28.7656 76.688 29.1562 78.0786 29.9375C79.4692 30.7109 80.5356 31.7969 81.2778 33.1953C82.02 34.5859 82.3911 36.2031 82.3911 38.0469C82.3911 39.8906 82.02 41.5117 81.2778 42.9102C80.5356 44.3008 79.4692 45.3867 78.0786 46.168C76.688 46.9414 75.0161 47.3281 73.063 47.3281ZM73.1098 42.5469C73.6567 42.5469 74.1294 42.3633 74.5278 41.9961C74.9263 41.6289 75.2348 41.1055 75.4536 40.4258C75.6723 39.7461 75.7817 38.9375 75.7817 38C75.7817 37.0547 75.6723 36.2461 75.4536 35.5742C75.2348 34.8945 74.9263 34.3711 74.5278 34.0039C74.1294 33.6367 73.6567 33.4531 73.1098 33.4531C72.5317 33.4531 72.0356 33.6367 71.6216 34.0039C71.2075 34.3711 70.8911 34.8945 70.6723 35.5742C70.4536 36.2461 70.3442 37.0547 70.3442 38C70.3442 38.9375 70.4536 39.7461 70.6723 40.4258C70.8911 41.1055 71.2075 41.6289 71.6216 41.9961C72.0356 42.3633 72.5317 42.5469 73.1098 42.5469ZM100.479 34.8594H94.5261C94.4948 34.4922 94.3659 34.1758 94.1394 33.9102C93.9128 33.6445 93.6198 33.4414 93.2605 33.3008C92.9089 33.1523 92.5183 33.0781 92.0886 33.0781C91.5339 33.0781 91.0573 33.1797 90.6589 33.3828C90.2605 33.5859 90.0652 33.875 90.073 34.25C90.0652 34.5156 90.1784 34.7617 90.4128 34.9883C90.655 35.2148 91.1198 35.3906 91.8073 35.5156L95.4636 36.1719C97.3073 36.5078 98.6784 37.0742 99.5769 37.8711C100.483 38.6602 100.94 39.7187 100.948 41.0469C100.94 42.3281 100.557 43.4414 99.7995 44.3867C99.0495 45.3242 98.0222 46.0508 96.7175 46.5664C95.4206 47.0742 93.9402 47.3281 92.2761 47.3281C89.5261 47.3281 87.3737 46.7656 85.8191 45.6406C84.2722 44.5156 83.4089 43.0312 83.2292 41.1875H89.6511C89.737 41.7578 90.0183 42.1992 90.4948 42.5117C90.9792 42.8164 91.5886 42.9687 92.323 42.9687C92.9167 42.9687 93.405 42.8672 93.7878 42.6641C94.1784 42.4609 94.3777 42.1719 94.3855 41.7969C94.3777 41.4531 94.2058 41.1797 93.8698 40.9766C93.5417 40.7734 93.0261 40.6094 92.323 40.4844L89.1355 39.9219C87.2995 39.6016 85.9245 38.9922 85.0105 38.0937C84.0964 37.1953 83.6433 36.0391 83.6511 34.625C83.6433 33.375 83.9714 32.3164 84.6355 31.4492C85.3073 30.5742 86.2644 29.9102 87.5066 29.457C88.7566 28.9961 90.237 28.7656 91.948 28.7656C94.5495 28.7656 96.6003 29.3047 98.1003 30.3828C99.6081 31.4609 100.401 32.9531 100.479 34.8594ZM113.171 29V33.6875H101.311V29H113.171ZM103.608 24.6875H110.077V41.2109C110.077 41.4609 110.12 41.6719 110.206 41.8438C110.292 42.0078 110.425 42.1328 110.604 42.2187C110.784 42.2969 111.015 42.3359 111.296 42.3359C111.491 42.3359 111.718 42.3125 111.976 42.2656C112.241 42.2187 112.436 42.1797 112.561 42.1484L113.499 46.6953C113.21 46.7812 112.796 46.8867 112.257 47.0117C111.726 47.1367 111.093 47.2188 110.358 47.2578C108.874 47.3359 107.628 47.1836 106.62 46.8008C105.612 46.4102 104.854 45.7969 104.347 44.9609C103.839 44.125 103.593 43.0781 103.608 41.8203V24.6875Z" fill="#67DDB9"/>
<path d="M232.312 9.03711C234.121 9.03711 235.588 10.5038 235.588 12.3125C235.588 14.1212 234.121 15.5879 232.312 15.5879C230.504 15.5879 229.037 14.1212 229.037 12.3125C229.037 10.5038 230.504 9.03711 232.312 9.03711Z" fill="#67DDB9" stroke="#67DDB9" stroke-width="0.3"/>
<path d="M232.312 43.4121C234.121 43.4121 235.588 44.8788 235.588 46.6875C235.588 48.4962 234.121 49.9629 232.312 49.9629C230.504 49.9629 229.037 48.4962 229.037 46.6875C229.037 44.8788 230.504 43.4121 232.312 43.4121Z" fill="#67DDB9" stroke="#67DDB9" stroke-width="0.3"/>
<path d="M197.938 24.8125H188.562V34.1875H197.938V24.8125ZM194.812 31.0625H191.688V27.9375H194.812V31.0625Z" fill="#67DDB9"/>
<path d="M226.162 10.6504V13.9746H222.938C221.617 13.9779 220.32 14.3197 219.169 14.9668C218.041 15.6014 217.09 16.5095 216.404 17.6064C217.114 18.3572 217.966 18.9593 218.913 19.374C219.883 19.7989 220.931 20.0189 221.989 20.0215H226.162V23.3467H221.988C219.293 23.3379 216.698 22.3413 214.687 20.5508L212.315 24.6592V24.6602C211.132 26.6922 209.418 28.3614 207.362 29.4961C209.419 30.6317 211.132 32.3035 212.315 34.3369V34.3379L214.687 38.4453C216.698 36.655 219.293 35.6592 221.988 35.6504H226.162V38.9746H221.989C220.931 38.9778 219.884 39.1997 218.914 39.625C217.968 40.04 217.116 40.641 216.406 41.3916C217.092 42.4889 218.042 43.3974 219.17 44.0322C220.321 44.6794 221.618 45.0218 222.938 45.0254H226.162V48.3496H222.938C221.267 48.346 219.619 47.9644 218.117 47.2334C216.653 46.5205 215.364 45.4932 214.343 44.2256C213.321 45.4921 212.034 46.5198 210.57 47.2324C209.162 47.9177 207.625 48.2962 206.063 48.3447L205.75 48.3496C203.814 48.3454 201.912 47.8339 200.235 46.8662C198.557 45.8986 197.162 44.5091 196.19 42.835V42.834L194.369 39.6777L194.32 39.5918L194.406 39.542L197.113 37.9795L197.199 37.9287L197.249 38.0156L199.071 41.1689L199.203 41.3887C200.606 43.6379 203.092 45.0254 205.75 45.0254C208.49 45.0253 211.047 43.5511 212.424 41.1787L209.436 36.002C208.584 34.5342 207.363 33.3149 205.894 32.4658C204.425 31.6169 202.759 31.1671 201.063 31.1621H200.962V27.8379H201.063C202.759 27.8329 204.425 27.3831 205.894 26.5342C207.363 25.6851 208.584 24.4658 209.436 22.998L212.424 17.8203C211.047 15.4483 208.491 13.9747 205.75 13.9746C203.09 13.9746 200.604 15.362 199.201 17.6113L199.07 17.8311L197.249 20.9844L197.199 21.0713L197.113 21.0205L194.406 19.458L194.32 19.4082L194.369 19.3223L196.19 16.167L196.377 15.8564C197.338 14.3203 198.662 13.0413 200.235 12.1338C201.912 11.1659 203.814 10.6548 205.75 10.6504L206.063 10.6553C207.626 10.7028 209.162 11.0812 210.571 11.7666C212.035 12.4792 213.322 13.5065 214.343 14.7734C215.364 13.5061 216.653 12.4794 218.117 11.7666C219.619 11.0356 221.267 10.654 222.938 10.6504H226.162Z" fill="#67DDB9" stroke="#67DDB9" stroke-width="0.2"/>
</svg>
